<?xml version="1.0" encoding="utf-8"?>
<!-- Generator: Adobe Illustrator 24.0.0, SVG Export Plug-In . SVG Version: 6.00 Build 0)  -->
<svg version="1.1" id="Layer_1" xmlns="http://www.w3.org/2000/svg" xmlns:xlink="http://www.w3.org/1999/xlink" x="0px" y="0px"
	 viewBox="0 0 512 410.6" style="enable-background:new 0 0 512 410.6;" xml:space="preserve">
<style type="text/css">
	.st0{fill-rule:evenodd;clip-rule:evenodd;fill:#C9320D;}
	.st1{fill-rule:evenodd;clip-rule:evenodd;fill:#FFFFFF;}
</style>
<g>
	<path class="st0" d="M29.7,38.9c18.5,10.4,30.8,17.4,51.4,15.8c18.8-1.5,35.2-14.5,53.4-13.8c24,0.9,45.4,29.3,73.1,31.6
		c13.2,1.1,25.5-4.9,37.6-4c18.2,1.4,31.5,17.2,51.4,19.8c20.8,2.7,44-6,67.2-2c23.6,4.1,45.2,10.2,67.2,13.8
		c17.5,2.9,37.9,5.4,49.4,17.8c-28.7-3.6-44.4,26.4-69.2,29.7c-9.6,1.2-19.9-5.2-29.7-4c-19,2.4-30.2,21.6-41.5,33.6
		c17.9,35.7,64.4,32,94.9,51.4c13.3,8.5,23,21,35.6,29.7c13.8,9.4,30.4,10.8,41.5,23.7c-13.2-0.8-22.9,7.8-35.6,7.9
		c-9.2,0.1-17.9-6.1-27.7-5.9c-12.2,0.2-22.5,9.3-35.6,9.9c-15.3,0.7-28.5-10.7-43.5-9.9c-20,1.1-32.6,27.8-51.4,31.6
		c-19.9,4-32.9-11-51.4-11.9c-24.2-1.1-47.1,19.1-75.1,19.8c-43.6,1-76.7-38.3-116.6-4c-1.8,20,0.1,43.6-7.9,57.3
		C76,268.1,70.6,147.8,31.6,74.5C32.8,187,42.4,296.8,45.5,406.6c-10.8-43-11.5-93.4-13.8-144.3c-1.7-37.3-4.3-75.9-5.9-112.7
		c-1.8-39,1.7-80-11.9-112.7c-5.3,119.5,16,252.1,4,373.6C12.1,272.4,11.1,139.3,0,7.3c11-8.1,30.6-12,35.6,2
		C40.4,22.8,26.8,27,29.7,38.9z M21.7,27.1c4-3.2,7.9-6.6,7.9-13.8C18.6-10.5-7.4,27.2,21.7,27.1z M156.2,155.6
		c-21.8-1.4-35.4,5.5-53.4,7.9c10.5,16.6,30.7,23.3,43.5,37.6c-6.6,17.1-10,37.5-15.8,55.4c24.1-3.2,32.9-32.9,55.4-31.6
		c16.7,0.9,24.9,21,43.5,25.7c0-20.4-7.8-33-11.9-49.4c8.6-19.2,36.8-29,41.5-45.5c-17.8,0-35.6,0-53.4,0
		c-9.1-17.2-14-38.7-27.7-51.4C168.5,119.1,167.9,142.9,156.2,155.6z"/>
	<path class="st1" d="M156.2,155.6c-21.8-1.4-35.4,5.5-53.4,7.9c10.5,16.6,30.7,23.3,43.5,37.6c-6.6,17.1-10,37.5-15.8,55.4
		c24.1-3.2,32.9-32.9,55.4-31.6c16.7,0.9,24.9,21,43.5,25.7c0-20.4-7.8-33-11.9-49.4c8.6-19.2,36.8-29,41.5-45.5
		c-17.8,0-35.6,0-53.4,0c-9.1-17.2-14-38.7-27.7-51.4C168.5,119.1,167.9,142.9,156.2,155.6z"/>
</g>
</svg>
