<?xml version="1.0" encoding="utf-8"?>
<!-- Generator: Adobe Illustrator 24.0.0, SVG Export Plug-In . SVG Version: 6.00 Build 0)  -->
<svg version="1.1" id="Layer_1" xmlns="http://www.w3.org/2000/svg" xmlns:xlink="http://www.w3.org/1999/xlink" x="0px" y="0px"
	 viewBox="0 0 409 339.8" style="enable-background:new 0 0 409 339.8;" xml:space="preserve">
<style type="text/css">
	.st0{fill-rule:evenodd;clip-rule:evenodd;fill:#C9320D;}
	.st1{fill-rule:evenodd;clip-rule:evenodd;fill:#FFFFFF;}
	.st2{fill-rule:evenodd;clip-rule:evenodd;}
</style>
<g>
	<path class="st0" d="M129.2,19.7c9.3,5.3,15.6,8.8,26,8c9.5-0.7,17.8-7.3,27-7c12.1,0.4,23,14.8,37,16c6.7,0.6,12.9-2.5,19-2
		c9.2,0.7,16,8.7,26,10c10.5,1.4,22.3-3,34-1c11.9,2.1,22.9,5.1,34,7c8.9,1.5,19.2,2.7,25,9c-14.5-1.8-22.5,13.4-35,15
		c-4.8,0.6-10.1-2.6-15-2c-9.6,1.2-15.3,10.9-21,17c9.1,18.1,32.6,16.2,48,26c6.7,4.3,11.6,10.6,18,15c7,4.8,15.4,5.4,21,12
		c-6.7-0.4-11.6,3.9-18,4c-4.6,0-9.1-3.1-14-3c-6.2,0.1-11.4,4.7-18,5c-7.8,0.4-14.4-5.4-22-5c-10.1,0.5-16.5,14.1-26,16
		c-10,2-16.6-5.6-26-6c-12.2-0.6-23.8,9.7-38,10c-22.1,0.5-38.8-19.4-59-2c-0.9,10.1,0.1,22.1-4,29c4.4-55,1.7-115.9-18-153
		c0.6,56.9,5.4,112.5,7,168c-5.4-21.7-5.8-47.3-7-73c-0.9-18.9-2.2-38.4-3-57c-0.9-19.7,0.9-40.5-6-57c-2.7,60.4,8.1,127.5,2,189
		c-2.9-69.9-3.4-137.2-9-204c5.6-4.1,15.5-6.1,18,1C134.6,11.5,127.8,13.6,129.2,19.7z M125.2,13.7c2-1.6,4-3.3,4-7
		C123.6-5.3,110.5,13.8,125.2,13.7z M193.2,78.7c-11.1-0.7-17.9,2.8-27,4c5.3,8.4,15.5,11.8,22,19c-3.4,8.6-5,19-8,28
		c12.2-1.6,16.7-16.6,28-16c8.5,0.5,12.6,10.6,22,13c0-10.3-4-16.7-6-25c4.3-9.7,18.6-14.7,21-23c-9,0-18,0-27,0
		c-4.6-8.7-7.1-19.6-14-26C199.4,60.3,199.1,72.3,193.2,78.7z"/>
	<path class="st1" d="M129.2,6.7c0,3.7-2,5.4-4,7C110.5,13.8,123.6-5.3,129.2,6.7z"/>
	<path class="st1" d="M204.2,52.7c6.9,6.4,9.4,17.3,14,26c9,0,18,0,27,0c-2.4,8.3-16.7,13.3-21,23c2,8.3,6,14.7,6,25
		c-9.4-2.4-13.5-12.5-22-13c-11.3-0.6-15.8,14.4-28,16c3-9,4.6-19.4,8-28c-6.5-7.2-16.7-10.6-22-19c9.1-1.2,15.9-4.7,27-4
		C199.1,72.3,199.4,60.3,204.2,52.7z"/>
	<path class="st0" d="M367.2,158.7c5.3,0.7,13.3-1.3,17,1C378.8,159,370.9,161,367.2,158.7z"/>
	<path class="st2" d="M27.2,182.7c-2.3,5-7.9,6.7-10,12c2.3,1.7,10.5-1.9,13,0c-0.2,5.8-4.9,7.1-7,11c4.4,2.1,9.4-3.9,16-3
		c-4.9,6.5-13.7,8.9-24,10c-2.8-6,5.3-7.4,6-13c-3.7-3-7.3,2.6-13,1C11.7,192.5,19.4,183.4,27.2,182.7z"/>
	<path class="st2" d="M376.2,186.7c2.9,3.8-2.4,6.5-3,10c0.4,3.3,3,4.3,5,6c4-0.7,2.4-7,7-7c2.4,2.7-1.3,5.3-2,8
		c-0.1,3.4,2.9,3.7,5,5c5-1.4,2.8-9.9,8-11c2.9,7.4-3.9,13.3-6,19c-7.7-5.3-14.8-11.2-23-16C369.5,195.4,370.8,189,376.2,186.7z"/>
	<path class="st0" d="M312.2,205.7c0,4,0,8,0,12C310.5,216,310.5,207.4,312.2,205.7z"/>
	<path class="st2" d="M46.2,212.7c0.5,4.8-6.1,2.6-5,8c0.7,3,3.9,3.4,5,6c5.3,1.2,6-6,10-3c-1.2,6.6-10.2,13.7-18,17
		c-2.3-2.8,2.9-4.5,4-7c0.6-6-3.5-7.2-6-10c-4.3,0.3-4.5,4.9-10,4C29.8,220.7,39.7,210.3,46.2,212.7z"/>
	<path class="st2" d="M383.2,225.7c-6.8,4.3-12.6,3.8-24,4c-1.1,9.5,13.6,7.2,10,16c-7.4-4.6-13.4-10.6-19-17c5.7-3.7,17.5-1.2,23-5
		c-2.6-5.1-9.7-5.6-11-12C370.5,211.1,378,219.7,383.2,225.7z"/>
	<path class="st2" d="M85.2,218.7c2.1-2.3,5.8,2.1,8,3C91.1,224,88.1,218.9,85.2,218.7z"/>
	<path class="st2" d="M83.2,222.7c3-2.6,6.2,3.1,10,3C90.1,228.3,86.3,223.3,83.2,222.7z"/>
	<path class="st0" d="M106.2,226.7c1.7,2.1,1.7,10.9,0,13C106.2,235.4,106.2,231,106.2,226.7z"/>
	<path class="st2" d="M85.2,228.7c3.8-2.4,8.1,3.2,12,4C93.6,234.8,89.5,229.1,85.2,228.7z"/>
	<path class="st2" d="M82.2,231.7c5.9-1.6,12.1,5.2,18,7C94.7,239.8,88.4,233.1,82.2,231.7z"/>
	<path class="st2" d="M65.2,234.7c-4.3,7.3-10.5,17.2-19,17C50.1,244.2,57.1,234.8,65.2,234.7z"/>
	<path class="st2" d="M71.2,241.7c5.5,3.5,12.6,5.4,14,13c-3.6,0.6-4.8-1.2-7-2c-5,4.6-10.6,8.8-14,15c-1.5-0.5-2.5-1.5-4-2
		c3.4-7,10.4-10.2,14-17C71.9,246.7,68.9,245.6,71.2,241.7z"/>
	<path class="st2" d="M358.2,261.7c-7-1.7-15.6-10.4-20-18C346.5,243.5,356.9,254.8,358.2,261.7z"/>
	<path class="st2" d="M93.2,258.7c6.7,1,11.3,4,12,11c-3.6-0.7-4.6-4.1-9-4c-3.1-0.5-2.6,2.7-5,3c0.5,2.9,3.5,3.1,3,7
		c-5.9-0.7-9.2-1-11,4c2,4,10.6,4.4,7,11c-5.9-2.1-9.7-6.3-14-10C80.5,272,89.5,268,93.2,258.7z"/>
	<path class="st2" d="M321.2,259.7c8.5,2.2,9.5,11.8,17,15c4.8-0.6,5.5-5.1,10-6c-1,7.3-6.2,10.4-12,13
		C332.8,273.3,320.6,268.7,321.2,259.7z"/>
	<path class="st0" d="M222.2,285.7c1.7-2.3,7.6-0.4,11-1C231.5,287,225.5,285.1,222.2,285.7z"/>
	<path class="st2" d="M176.2,299.7c-5.1,0.4-4.4-4.9-8-6c-2.1,0.9-4.4,1.6-6,3c1.7,8.9,14.8,9.1,15,17c0.3,10.9-20.8,12.6-22-1
		c4.3,1.7,12.7,9.5,17,2c-2.4-7-10.7-8-14-14c-0.2-3.2,1.8-4.2,1-8C164.4,287.4,179.9,290.6,176.2,299.7z"/>
	<path class="st0" d="M198.2,289.7c7.7,0,15.3,0,23,0C215.8,291.4,203.5,291.4,198.2,289.7z"/>
	<path class="st2" d="M266.2,292.7c1,9.7,1.2,15.8,7,24c-6.4,2.7-7.7-6.4-12-9c-3.1-0.1-4.8,1.2-7,2c-0.6,3.4,1.3,9.3-1,11
		c-5.2-7.5-5.1-17.1-6-27C252.8,293.1,260.4,289.9,266.2,292.7z M251.2,296.7c-0.5,3.8,0.3,6.4,2,8c4.8,0.1,8.4-1,11-3
		C266.2,292,256.1,295.1,251.2,296.7z"/>
	<path class="st2" d="M188.2,294.7c6.2,1.5,15.2,0.1,20,3c-0.1,5.1-3.3,1.4-7,2c-5.5,3.5-2,20.2-4,24c-8.3-2.2-0.1-15.8-3-22
		C193.4,298.1,187.1,300.1,188.2,294.7z"/>
	<path class="st2" d="M226.2,296.7c3.6,9.1,10,15.4,12,26c-5.2,0.5-5-4.3-7-7c-13.9-4.7-10.9,10.9-19,9
		C217.8,316.3,215.5,300,226.2,296.7z M224.2,302.7c-0.9,2.8-3.2,4.1-3,8c2.3,0,4.7,0,7,0C228.9,305.9,226.8,304.1,224.2,302.7z"/>
	<path class="st0" d="M208.2,334.7c3.4,0.6,9.3-1.3,11,1C215.8,335.1,209.9,337,208.2,334.7z"/>
	<path class="st1" d="M312.2,205.7c-0.8-5.1,2.1-6.6,2-11c14.1-2.9,21.5-12.5,31-20c-0.6,8.7-3.9,17.1-4,26c-0.1,6.2,3.1,11.8,2,17
		c-2.5,11.6-16.7,12.6-28,17c-2.3-2.3,1.4-3.6,4-4c-0.6-3.6-4.7,2.3-5-1c2.4-3.9,10.2-2.5,12-7c-4.6,1.1-6.7,4.6-13,4
		c-1.7-1.7-0.8-5.9-1-9C312.2,213.7,312.2,209.7,312.2,205.7z"/>
	<path class="st1" d="M360.2,189.7c-3,9-6.5,17.5-14,22C340.3,198.8,349.4,174.2,360.2,189.7z"/>
	<path class="st1" d="M106.2,239.7c0,1.7,0,3.3,0,5c-12.6-3.1-21.8-9.5-31-16c-0.9-16.7-6.1-29.2-11-42c12.1,3.2,23.9,6.8,35,11
		c3.5,7.5,6.3,16.5,7,29C106.2,231,106.2,235.4,106.2,239.7z M100.2,238.7c-5.9-1.8-12.1-8.6-18-7
		C88.4,233.1,94.7,239.8,100.2,238.7z M93.2,221.7c-2.2-0.9-5.9-5.3-8-3C88.1,218.9,91.1,224,93.2,221.7z M93.2,225.7
		c-3.8,0.1-7-5.6-10-3C86.3,223.3,90.1,228.3,93.2,225.7z M97.2,232.7c-3.9-0.8-8.2-6.4-12-4C89.5,229.1,93.6,234.8,97.2,232.7z"/>
	<path class="st1" d="M309.2,255.7c-2,3-7.7,6.5-11,5C293.2,251.7,307.7,245,309.2,255.7z"/>
	<path class="st1" d="M386.2,264.7c0.1,3.1-2.6,3.4-5,4c2,2.2,7.2-0.7,9-2c-0.3-2.3-1.6-3.8-1-7c3.7-0.7,7.6-1.7,11,0
		c4.8,17.2-12.4,20.9-23,18c-0.9-2-3.3-4.8-1-7c-3.1,0.7-3.6-1-6-1C369.2,261.7,386.3,253.6,386.2,264.7z"/>
	<path class="st1" d="M136.2,262.7c1.8,5.8-5.6,11-7,17C127.3,273.8,134.5,268.3,136.2,262.7z"/>
	<path class="st0" d="M298.2,272.7c-2.4-2.2-4.8-4.5-5-9C296.1,265.4,296.5,269.7,298.2,272.7z"/>
	<path class="st0" d="M128.2,272.7c-1.7,3.3-3.3,6.7-5,10C121.7,280.2,124.5,273.4,128.2,272.7z"/>
	<path class="st0" d="M118.2,282.7c-1.6-1,0.5-6.7,3-7C120.8,278.7,119.6,280.8,118.2,282.7z"/>
	<path class="st1" d="M135.2,271.7c4.3,3.7-3.4,10.8-5,15C127.4,281.2,136.1,278.6,135.2,271.7z"/>
	<path class="st1" d="M208.2,334.7c-28.6-2.7-58.4-4.2-77-17c3.5-14.8,9.6-27.1,14-41c11.8,6.3,29.7,14.9,53,13
		c5.4,1.7,17.6,1.7,23,0c21-1.7,39.7-5.7,56-12c5.7,14.3,12.8,27.2,19,41c-18.5,12.8-47.6,15.1-77,17
		C217.5,333.4,211.5,335.3,208.2,334.7z M159.2,292.7c0.8,3.8-1.2,4.8-1,8c3.3,6,11.6,7,14,14c-4.3,7.5-12.7-0.3-17-2
		c1.2,13.6,22.3,11.9,22,1c-0.2-7.9-13.3-8.1-15-17c1.6-1.4,3.9-2.1,6-3c3.6,1.1,2.9,6.4,8,6C179.9,290.6,164.4,287.4,159.2,292.7z
		 M247.2,293.7c0.9,9.9,0.8,19.5,6,27c2.3-1.7,0.4-7.6,1-11c2.2-0.8,3.9-2.1,7-2c4.3,2.6,5.6,11.7,12,9c-5.8-8.2-6-14.3-7-24
		C260.4,289.9,252.8,293.1,247.2,293.7z M194.2,301.7c2.9,6.2-5.3,19.8,3,22c2-3.8-1.5-20.5,4-24c3.7-0.6,6.9,3.1,7-2
		c-4.8-2.9-13.8-1.5-20-3C187.1,300.1,193.4,298.1,194.2,301.7z M212.2,324.7c8.1,1.9,5.1-13.7,19-9c2,2.7,1.8,7.5,7,7
		c-2-10.6-8.4-16.9-12-26C215.5,300,217.8,316.3,212.2,324.7z"/>
	<path class="st0" d="M372.2,278.7c-6.7,5-13.3,10.1-21,14C356.8,286.6,363.8,282,372.2,278.7z"/>
	<path class="st1" d="M132.2,287.7c1.9-2.1,2.4-5.6,4-8c3.1,1.3-2.2,4.8,2,5C137.2,286.8,134.1,289.5,132.2,287.7z"/>
	<path class="st0" d="M292.2,279.7c1.9,1.4,4.4,2.2,4,6C294.2,284.4,292.8,282.4,292.2,279.7z"/>
	<path class="st1" d="M379.2,282.7c-0.2,3.1-3.5,3.1-6,4C374,284.2,375.5,282.4,379.2,282.7z"/>
	<path class="st0" d="M61.2,293.7c-2.7,0.3-11-2.3-13-6C53.7,288.5,56.9,291.6,61.2,293.7z"/>
	<path class="st0" d="M67.2,298.7c-1.5-1.9-5.2-1.5-5-5c2.3,1.1,4.4,2.3,6,4C67.3,297.5,67.2,298.1,67.2,298.7z"/>
	<path class="st1" d="M228.2,310.7c-2.3,0-4.7,0-7,0c-0.2-3.9,2.1-5.2,3-8C226.8,304.1,228.9,305.9,228.2,310.7z"/>
	<path class="st1" d="M276.2,272.7c-1.9,2.4-4.9,3.8-9,4c-0.9-3.7-4.1-5.2-3-11C269.7,262.8,277.7,265.2,276.2,272.7z"/>
	<path class="st1" d="M264.2,301.7c-2.6,2-6.2,3.1-11,3c-1.7-1.6-2.5-4.2-2-8C256.1,295.1,266.2,292,264.2,301.7z"/>
	<path class="st1" d="M68.2,297.7c3.8,0.2,4.9,3.1,8,4c-2.8,2.7-6.6-2-9-3C67.2,298.1,67.3,297.5,68.2,297.7z"/>
	<path class="st1" d="M328.2,298.7c-10-10.4-19.4-21.3-26-35c35.8-22.2,58.1-57.9,73-101c14.5-1.7,28.7,11.9,31,23
		c4.4,21.5-19.8,55.5-29,67C361.2,272.7,345.5,288.5,328.2,298.7z M367.2,200.7c8.2,4.8,15.3,10.7,23,16c2.1-5.7,8.9-11.6,6-19
		c-5.2,1.1-3,9.6-8,11c-2.1-1.3-5.1-1.6-5-5c0.7-2.7,4.4-5.3,2-8c-4.6,0-3,6.3-7,7c-2-1.7-4.6-2.7-5-6c0.6-3.5,5.9-6.2,3-10
		C370.8,189,369.5,195.4,367.2,200.7z M362.2,211.7c1.3,6.4,8.4,6.9,11,12c-5.5,3.8-17.3,1.3-23,5c5.6,6.4,11.6,12.4,19,17
		c3.6-8.8-11.1-6.5-10-16c11.4-0.2,17.2,0.3,24-4C378,219.7,370.5,211.1,362.2,211.7z M338.2,243.7c4.4,7.6,13,16.3,20,18
		C356.9,254.8,346.5,243.5,338.2,243.7z M336.2,281.7c5.8-2.6,11-5.7,12-13c-4.5,0.9-5.2,5.4-10,6c-7.5-3.2-8.5-12.8-17-15
		C320.6,268.7,332.8,273.3,336.2,281.7z"/>
	<path class="st1" d="M34.2,173.7c8.7,28.6,31.6,53.5,55,72c10.7,8.5,18.1,16.5,33,17c-2.5-3.6-11.3-3.8-7-11c3.5-3,5.7,1.7,9,2
		c-3.5,21.1-19.5,29.8-27,47c-22-6-38.7-23.9-57-43c-10-10.4-35.5-33.2-37-51C1.8,190.1,12.9,169.8,34.2,173.7z M8.2,200.7
		c5.7,1.6,9.3-4,13-1c-0.7,5.6-8.8,7-6,13c10.3-1.1,19.1-3.5,24-10c-6.6-0.9-11.6,5.1-16,3c2.1-3.9,6.8-5.2,7-11
		c-2.5-1.9-10.7,1.7-13,0c2.1-5.3,7.7-7,10-12C19.4,183.4,11.7,192.5,8.2,200.7z M26.2,227.7c5.5,0.9,5.7-3.7,10-4
		c2.5,2.8,6.6,4,6,10c-1.1,2.5-6.3,4.2-4,7c7.8-3.3,16.8-10.4,18-17c-4-3-4.7,4.2-10,3c-1.1-2.6-4.3-3-5-6c-1.1-5.4,5.5-3.2,5-8
		C39.7,210.3,29.8,220.7,26.2,227.7z M46.2,251.7c8.5,0.2,14.7-9.7,19-17C57.1,234.8,50.1,244.2,46.2,251.7z M74.2,248.7
		c-3.6,6.8-10.6,10-14,17c1.5,0.5,2.5,1.5,4,2c3.4-6.2,9-10.4,14-15c2.2,0.8,3.4,2.6,7,2c-1.4-7.6-8.5-9.5-14-13
		C68.9,245.6,71.9,246.7,74.2,248.7z M76.2,280.7c4.3,3.7,8.1,7.9,14,10c3.6-6.6-5-7-7-11c1.8-5,5.1-4.7,11-4c0.5-3.9-2.5-4.1-3-7
		c2.4-0.3,1.9-3.5,5-3c4.4-0.1,5.4,3.3,9,4c-0.7-7-5.3-10-12-11C89.5,268,80.5,272,76.2,280.7z"/>
	<path class="st1" d="M70.2,222.7c-7.2-5.1-12.5-12.2-18-19C59.2,187.1,73,208,70.2,222.7z"/>
	<path class="st1" d="M48.2,272.7c0.8,3.8-1.2,4.8-1,8c-7.5,3.1-12.8,12.8-25,8c-2.1-5.3-2.1-11.2,0-17c3.5,0.8,4.2-1.9,6,0
		c3.2,2.3-1.7,7.5,1,9c4.2-0.1,1-7.7,2-11C39.7,270.1,43.5,269.1,48.2,272.7z"/>
	<path class="st1" d="M159.2,272.7c0.8,3.5-1.1,4.2-2,6c-2.7-2.3-8.7-1.3-8-7C152.6,269.9,156.3,271.2,159.2,272.7z"/>
	<path class="st1" d="M345.2,292.7c5.7-8.3,14.7-13.3,24-18c-3.6,6.4-11.9,8.1-17,13C350.3,289.8,348.6,292.1,345.2,292.7z"/>
	<g>
		<g>
			<path class="st2" d="M379,256.7c7.4,0.8,9.7-3.6,17-3c6.8,2.2,10,11.1,7,20c-5.2,8.8-16.8,11.2-26,16c-8.2,5.1-15.8,10.8-25,15
				c-5.8-0.5-8-4.6-13-6c-4.7,0.3-5.9,4.1-10,5c-8.8-3.5-9.3-15.4-19-18c-9.4,0.9-13.5,7.1-18,13c0.4,10,6.2,14.5,8,23
				c-15.9,11.1-40.4,13.6-63,18c-43.1,0.8-81.2-3.5-110-17c-2.1-8.6,5.8-13.6,5-24c-3.7-6-9.7-9.6-18-11c-9.7,3.3-9.6,16.4-18,21
				c-5.8-0.2-7.4-4.6-12-6c-5.2,0.5-4.2,7.1-9,8c-16-8-29.4-18.6-54-18c-4.2-4.5-9-8.3-10-16c0.9-4.1,3.1-6.9,5-10
				c7.4-2.3,15.9,0,23,1c-4.4-9.9-12.7-16-19-24c-6.6-7.8-12.5-16.2-18-25c0.3-3.7-1.1-5.6-2-8c-0.9-21.2,10-38.3,29-43
				c6.3-0.3,11.8,0.2,17,1c12.6,12.7,30.8,19.9,51,25c12.6,10.6,14.6,36.6,12,59c5,1.7,6-8.4,9-12c3.6-1.7,6.8-3.9,11-5
				c19,1.3,32.3,8.3,35,26c0.6,7.2-3.3,10-3,17c4.3,6,16.8,3.9,24,7c28.2,0.2,57.4,1.5,78-8c-0.7-9.6-5.7-15-5-26
				c3.7-13.8,18-20.6,34-19c7.8,5.6,12.4,14.3,20,20c-0.7-16.6-6-38-1-57c19.1-8.9,30.2-25.8,48-36c9-1.5,18.7-1.2,26,0
				c12.1,4.9,19.7,14.3,24,27C407.5,218.5,393.2,237.5,379,256.7z M377,252.7c12.3-19.4,26.8-36.5,29-66c-6.9-11-14.2-26.2-31-24
				c-3.7,7.3-6.3,15.7-8,25c-9.1,17.9-21.4,32.6-32,49c-10.8,9-20.3,23-33,27c6.5,13.8,16.6,24.1,26,35
				C348.3,287.3,361.4,268.7,377,252.7z M8,184.7c-1.3,6.7-4.1,11.9-5,19c1.4,1.3,1,4.3,1,7c0.8,0.2,1.2,0.8,1,2
				c10.2,19.4,24.7,34.6,40,49c6.4,8.6,14.7,15.3,23,22c9,6,15,15,28,17c5.7-4,8.5-10.8,11-18c3.3-3.1,4.9-7.8,9-10
				c0.5-4.6,8.3-7,6-11c-2.8,5-8.5-1.3-13-1c-31-23-62-46-75-87C20.9,170.1,15,179.2,8,184.7z M320,229.7c-0.9,2.4-5.6,1.1-5,5
				c11.1-3.9,23.3-6.7,28-17c-3.5-14.2,1.2-28.8,0-42c-7.2,9.1-17.3,15.3-29,20c-3,9.4-2.9,21.2-1,31c6.3,1.6,9.3-5.3,13-3
				c-2.8,3.5-10.3,2.4-12,7C316.4,230.7,317,229,320,229.7z M348,211.7c3.8-7.5,9.9-12.8,12-22C349.4,174,339.4,202.2,348,211.7z
				 M75,227.7c7.8,7.9,18.6,12.8,30,17c3.9-16.1-1.3-32-5-46c-10.5-5.5-24-8-36-12C69.3,198.8,73.9,211.5,75,227.7z M52,201.7
				c4.4,8.3,10.1,15.2,18,20C71.2,209,62.4,190.1,52,201.7z M326,233.7c-0.3-0.3-1.5,0.5-1,1C325.3,235,326.6,234.2,326,233.7z
				 M317,237.7c-0.3-0.3-1.5,0.5-1,1C316.3,239,317.6,238.2,317,237.7z M298,260.7c6,0,9.7-2.3,11-7
				C304.1,246.2,295.4,253.2,298,260.7z M114,256.7c2.3,2.4,4.8,4.5,10,4C126.8,252,114.1,248.1,114,256.7z M389,259.7
				c-0.8,3.5,1.5,3.8,1,7c-2.8,2.3-5,4.2-9,2c2.1-1.3,5.1-1.6,5-5c-0.5-1.5-1.5-2.5-2-4c-7.2,0.1-11.8,2.9-14,8c0.8,0.2,1.2,0.8,1,2
				c1.2,1.2,3.5,1.1,6,1c-4.1,3.1,0.3,5.2,2,8c3.8-1.3,5.9-2.8,9,0c8.8-1.4,14-8.8,12-18c-3.8,1.4-1.9-2.7-5-2
				C392.7,258.7,392.1,260.4,389,259.7z M135,266.7c-3.4,2.9-4.9,7.8-7,12C131.5,275.9,133.7,271.7,135,266.7c0.3,0,0.7,0,1,0
				c0.3-0.6,2.5-3.9,0-4C135.3,263.6,135,265,135,266.7z M155,266.7c0.7,0,1.3,0,2,0c0-0.7,0-1.3,0-2c-0.7,0-1.3,0-2,0
				C155,265.4,155,266,155,266.7z M264,265.7c-0.1,5.1,2,8,4,11c4.9-0.4,7.6-3.1,8-8C275.2,264.9,268.1,263.2,264,265.7z M294,265.7
				c-0.3,2.3,0.2,3.8,2,4c-1,4.2,3,0.2,0,0C296.3,267.4,295.8,265.9,294,265.7C293.4,264.2,292.8,265.8,294,265.7z M28,281.7
				c-0.8-4.1,1.5-5.1,1-9c-1.3-1.4-4.3-1-7-1c-0.5,5.4-3,11.5,1,17c7.3,2.7,16.5,0.2,18-6c3.1,0.5,3.9-1.4,6-2c-0.2-3.2,1.8-4.2,1-8
				c-3.8-2.8-10.5-2.8-17-3C29.3,275.2,35.3,282.3,28,281.7z M140,273.7c0.1-1.2,1.8-2.3,0-3C139.9,271.9,138.3,273,140,273.7z
				 M149,271.7c0.4,4.3,6.3,7.2,10,5C159.5,271,153,270.1,149,271.7z M125,276.7c-1,0-0.8,1.2-1,2c-1,0-0.8,1.2-1,2
				c-1.5,0.6,0.1,1.2,0,0c1,0,0.8-1.2,1-2C125,278.7,124.8,277.5,125,276.7c0.3,0,0.7,0,1,0c0.3-0.6,2.5-3.9,0-4
				C126.2,274.5,124.8,274.8,125,276.7z M135,275.7c-2,2.7-6.7,7.9-5,11C131.3,282.6,134.6,280.6,135,275.7
				C138.1,274.5,134,270.4,135,275.7z M365,272.7c-0.3-0.3-1.5,0.5-1,1C364.3,274,365.6,273.2,365,272.7z M118,281.7
				C116.6,282.3,118.1,282.9,118,281.7c0.3,0,0.7,0,1,0c0.2-1.6,3.4-5.2,1-6C119.5,277.8,117.6,278.6,118,281.7z M345,292.7
				c4.9-1.7,6.9-6.4,12-8c2.5-4.5,9.1-4.9,12-9C358.7,279,351.7,285.7,345,292.7z M131,317.7c20,13.6,54.2,13.6,82,18c5,0,10,0,15,0
				c9.8-2.4,23.8-2.5,36-5c10-4.3,24.9-3.8,31-12c-5.1-14.5-13-26.4-18-41c-21.4,9.3-64,15.6-96,12c-6.6-0.7-19.9-3.6-25-6
				c-4.1-1.9-7.1-7.6-11-7C140.7,290.7,135.1,303.4,131,317.7z M305,277.7C306.2,281.7,306.2,273.8,305,277.7L305,277.7z M303,281.7
				c0.3-2.3-0.2-3.8-2-4C300.8,280,301.3,281.5,303,281.7z M370,279.7c-2.3,0.3-4.3,1-5,3c-0.9-0.2-0.9,0.4-1,1c-1.7,0-2.6,0.7-3,2
				c-1.9,0.4-4.3,0.4-4,3c-1.2-0.2-1.8,0.2-2,1c-2.5-0.2-3.1,1.5-4,3c-4.4-0.2-0.3,3.9,0,0c2.5,0.2,3.1-1.5,4-3c1.2,0.2,1.8-0.2,2-1
				c1.3-1,3.7-0.9,4-3c1.7,0,2.6-0.7,3-2c0.9,0.2,0.9-0.4,1-1C367.4,282.4,369.4,281.7,370,279.7C374.2,280.7,370.3,276.7,370,279.7
				z M136,281.7c-1.6,1.4-2.6,3.4-3,6C137.3,287.1,136.7,285.5,136,281.7C139,281.5,135.1,277.5,136,281.7z M294,281.7
				c-0.2,1.2,0.2,1.8,1,2c0.6,1.5,1.2-0.1,0,0C295.2,282.5,294.8,281.9,294,281.7C293.4,280.2,292.8,281.8,294,281.7z M374,280.7
				c-0.3-0.3-1.5,0.5-1,1C373.3,282,374.6,281.2,374,280.7z M127,284.7c0.9-0.2,0.5-5.5-1-2C125.8,283.3,126.5,284.8,127,284.7z
				 M373,286.7c3-0.4,4.9-1.7,6-4C375.3,282.3,374.5,284.8,373,286.7z M292,286.7C289.6,290.1,295.4,284.3,292,286.7L292,286.7z
				 M54,290.7c0,1,1.2,0.8,2,1c0.6,1.5,1.2-0.1,0,0C56,290.7,54.8,290.9,54,290.7c-0.9-1.8-3.5-1.8-5-3
				C48.9,290.5,51.5,290.6,54,290.7z M45,290.7c-0.3-0.3-1.5,0.5-1,1C44.3,292,45.6,291.2,45,290.7z M59,292.7c-0.3-0.3-1.5,0.5-1,1
				C58.3,294,59.6,293.2,59,292.7z M75,302.7c-2.6-3.4-8.9-8.4-13-7C66.9,297.5,70.1,301,75,302.7z M73,294.7c-0.8,0.2-2,0-2,1
				C71.8,295.5,73,295.7,73,294.7z"/>
			<path class="st1" d="M328,298.7c-9.4-10.9-19.5-21.2-26-35c12.7-4,22.2-18,33-27c10.6-16.4,22.9-31.1,32-49
				c1.7-9.3,4.3-17.7,8-25c16.8-2.2,24.1,13,31,24c-2.2,29.5-16.7,46.6-29,66C361.4,268.7,348.3,287.3,328,298.7z M367,200.7
				c7.1,5.5,15.4,9.9,22,16c3.5-3.6,13.1-16.3,5-19c-2.1,3.5-2.4,8.9-6,11c-1.3-1-3-1.6-4-3c-1.4-5,3.6-6.9,1-10
				c-4.5,0.2-3.1,6.2-8,6c-0.2-2.8-4.8-1.2-4-5c0.9-3.4,4.3-4.3,4-9c-1.3-0.1-1.4-1.3-3-1C371.3,191,368.7,195.4,367,200.7z
				 M362,213.7c2.1,4.9,9.7,4.3,10,11c-7.4,0.9-15.2,1.5-22,3c0.8,5.5,5.5,7.2,9,10c2.7,2.9,6.8,8.9,11,7c-0.7-7.6-9.8-6.9-11-14
				c7.3-2.7,21.5,1.5,24-6c-5.2-6.5-12.7-10.7-20-15C363.3,211.6,361.9,211.9,362,213.7z M337,246.7c8,4,12.2,11.8,20,16
				c4.3-8.6-11-13.2-15-20c-1,0-2,0-3,0C339,244.7,336.3,244,337,246.7z M319,262.7c7.8,4.8,10.6,14.7,19,19c3.7-4.1,12-7.4,10-14
				c-4.8,0.9-5.4,6-10,7c-6.4-4.2-9.6-11.8-16-16C321.8,260.7,319.3,260.7,319,262.7z"/>
			<path class="st1" d="M34,173.7c13,41,44,64,75,87c4.5-0.3,10.2,6,13,1c2.3,4-5.5,6.4-6,11c-4.1,2.2-5.7,6.9-9,10
				c-2.5,7.2-5.3,14-11,18c-13-2-19-11-28-17c-8.3-6.7-16.6-13.4-23-22c-15.3-14.4-29.8-29.6-40-49c0.2-1.2-0.2-1.8-1-2
				c0-2.7,0.4-5.7-1-7c0.9-7.1,3.7-12.3,5-19C15,179.2,20.9,170.1,34,173.7z M23,181.7c-4.6,6.7-12.2,10.4-16,18
				c4.3,4.5,9.7-2.5,14,0c-0.9,5.1-6.7,5.3-7,11c0.8,0.2,1.2,0.8,1,2c7.7,0,19.7-3.4,24-10c-6.4-1.1-11.7,4.3-15,3
				c1.8-4.2,6.2-5.8,6-12c-3.9-0.2-9.8,2.8-13,0c3.2-3.8,8.3-5.7,10-11C25.7,182.4,25.1,181.3,23,181.7z M42,210.7
				c-4.8,6.2-13.2,8.8-17,16c5.2,3.7,7.5-2.8,12-3c0.6,4.1,5.3,4,5,9c-1.1,3.1-7.3,4.7-4,9c5.4-0.6,6.8-5.2,10-8c3.3-3,8.1-4.5,9-10
				c-3.9-2.9-6.7,2.2-10,3c-2.3-2-5.3-3.3-6-7c0.4-3.9,5.8-2.9,5-8C44.7,211.4,44.1,210.3,42,210.7z M48,253.7
				c6.2-5.8,13.6-10.4,17-19c-1.4-0.2-1.7-1.6-3-2C57.9,239.4,43,244.4,48,253.7z M70,242.7c-1.1,4.4,3.4,3.3,3,7
				c-3.3,6.4-9.9,9.4-13,16c7.8,5,10.1-10.6,18-12c3.1-0.1,4.5,3.5,7,1C85.5,249.6,75.8,241.6,70,242.7z M93,258.7
				c-4.1,8.9-13.1,12.9-17,22c3.8,3.7,9.3,10.5,15,9c1.3-7.3-6.8-5.2-7-11c1-4.3,6.3-2.7,10-2c1-4.7-1.6-5.7-3-8
				c4.3-6.6,10.6,1.7,15,0C104.4,262.7,100.3,259.1,93,258.7z"/>
			<path class="st1" d="M320,229.7c4,0.6,4-2.6,8-2C327.3,224.2,321.1,227.5,320,229.7c-3.1-0.7-3.6,1-6,1c1.7-4.6,9.2-3.5,12-7
				c-3.7-2.3-6.7,4.6-13,3c-1.9-9.8-2-21.6,1-31c11.7-4.7,21.8-10.9,29-20c1.2,13.2-3.5,27.8,0,42c-4.7,10.3-16.9,13.1-28,17
				C314.5,230.8,319.2,232.2,320,229.7z M321,217.7c-0.4-2.4,4.6,0.6,3-3C322.3,214.5,318.1,216.6,321,217.7z M320,221.7
				c2-0.4,7.8-2.1,5-4C324.8,220.5,319.4,218.1,320,221.7z M334,222.7c-0.3-0.3-1.5,0.5-1,1C333.3,224,334.6,223.2,334,222.7z"/>
			<path class="st2" d="M27,182.7c-1.7,5.3-6.8,7.2-10,11c3.2,2.8,9.1-0.2,13,0c0.2,6.2-4.2,7.8-6,12c3.3,1.3,8.6-4.1,15-3
				c-4.3,6.6-16.3,10-24,10c0.2-1.2-0.2-1.8-1-2c0.3-5.7,6.1-5.9,7-11c-4.3-2.5-9.7,4.5-14,0c3.8-7.6,11.4-11.3,16-18
				C25.1,181.3,25.7,182.4,27,182.7z"/>
			<path class="st1" d="M64,186.7c12,4,25.5,6.5,36,12c3.7,14,8.9,29.9,5,46c-11.4-4.2-22.2-9.1-30-17
				C73.9,211.5,69.3,198.8,64,186.7z M90,214.7C86,211.2,87.7,217.9,90,214.7L90,214.7z M94,223.7c-1.3-2.8-6.1-7.1-9-5
				C88,220.4,90.4,222.7,94,223.7z M94,226.7c-3.2-2.5-7.3-4-11-6C83.3,225.5,91.8,227.2,94,226.7z M97,232.7c-4.2-1.5-9.4-7.2-14-5
				C88.3,228.2,92.4,235,97,232.7z M103,241.7c-6.1-6.9-16.8-9.2-25-14C84,234.8,94.7,237.1,103,241.7z"/>
			<path class="st2" d="M374,186.7c1.6-0.3,1.7,0.9,3,1c0.3,4.7-3.1,5.6-4,9c-0.8,3.8,3.8,2.2,4,5c4.9,0.2,3.5-5.8,8-6
				c2.6,3.1-2.4,5-1,10c1,1.4,2.7,2,4,3c3.6-2.1,3.9-7.5,6-11c8.1,2.7-1.5,15.4-5,19c-6.6-6.1-14.9-10.5-22-16
				C368.7,195.4,371.3,191,374,186.7z"/>
			<path class="st2" d="M363,209.7c7.3,4.3,14.8,8.5,20,15c-2.5,7.5-16.7,3.3-24,6c1.2,7.1,10.3,6.4,11,14c-4.2,1.9-8.3-4.1-11-7
				c-3.5-2.8-8.2-4.5-9-10c6.8-1.5,14.6-2.1,22-3c-0.3-6.7-7.9-6.1-10-11C361.9,211.9,363.3,211.6,363,209.7z"/>
			<path class="st2" d="M46,211.7c0.8,5.1-4.6,4.1-5,8c0.7,3.7,3.7,5,6,7c3.3-0.8,6.1-5.9,10-3c-0.9,5.5-5.7,7-9,10
				c-3.2,2.8-4.6,7.4-10,8c-3.3-4.3,2.9-5.9,4-9c0.3-5-4.4-4.9-5-9c-4.5,0.2-6.8,6.7-12,3c3.8-7.2,12.2-9.8,17-16
				C44.1,210.3,44.7,211.4,46,211.7z"/>
			<path class="st2" d="M90,214.7C87.7,217.9,86,211.2,90,214.7L90,214.7z"/>
			<path class="st2" d="M324,214.7c1.6,3.6-3.4,0.6-3,3C318.1,216.6,322.3,214.5,324,214.7z"/>
			<path class="st2" d="M85,218.7c2.9-2.1,7.7,2.2,9,5C90.4,222.7,88,220.4,85,218.7z"/>
			<path class="st2" d="M325,217.7c2.8,1.9-3,3.6-5,4C319.4,218.1,324.8,220.5,325,217.7z"/>
			<path class="st2" d="M83,220.7c3.7,2,7.8,3.5,11,6C91.8,227.2,83.3,225.5,83,220.7z"/>
			<path class="st2" d="M333,223.7c-0.5-0.5,0.7-1.3,1-1C334.6,223.2,333.3,224,333,223.7z"/>
			<path class="st2" d="M320,229.7c1.1-2.2,7.3-5.6,8-2C324.1,227.1,324,230.3,320,229.7z"/>
			<path class="st2" d="M83,227.7c4.6-2.2,9.8,3.5,14,5C92.4,235,88.3,228.2,83,227.7z"/>
			<path class="st2" d="M78,227.7c8.2,4.8,18.9,7.1,25,14C94.7,237.1,84,234.8,78,227.7z"/>
			<path class="st2" d="M62,232.7c1.3,0.4,1.6,1.8,3,2c-3.4,8.6-10.8,13.2-17,19C43,244.4,57.9,239.4,62,232.7z"/>
			<path class="st1" d="M325,234.7c-0.5-0.5,0.7-1.3,1-1C326.6,234.2,325.3,235,325,234.7z"/>
			<path class="st1" d="M316,238.7c-0.5-0.5,0.7-1.3,1-1C317.6,238.2,316.3,239,316,238.7z"/>
			<path class="st2" d="M85,254.7c-2.5,2.5-3.9-1.1-7-1c-7.9,1.4-10.2,17-18,12c3.1-6.6,9.7-9.6,13-16c0.4-3.7-4.1-2.6-3-7
				C75.8,241.6,85.5,249.6,85,254.7z"/>
			<path class="st2" d="M339,242.7c1,0,2,0,3,0c4,6.8,19.3,11.4,15,20c-7.8-4.2-12-12-20-16C336.3,244,339,244.7,339,242.7z"/>
			<path class="st1" d="M309,253.7c-1.3,4.7-5,7-11,7C295.4,253.2,304.1,246.2,309,253.7z"/>
			<path class="st1" d="M124,260.7c-5.2,0.5-7.7-1.6-10-4C114.1,248.1,126.8,252,124,260.7z"/>
			<path class="st2" d="M106,268.7c-4.4,1.7-10.7-6.6-15,0c1.4,2.3,4,3.3,3,8c-3.7-0.7-9-2.3-10,2c0.2,5.8,8.3,3.7,7,11
				c-5.7,1.5-11.2-5.3-15-9c3.9-9.1,12.9-13.1,17-22C100.3,259.1,104.4,262.7,106,268.7z"/>
			<path class="st2" d="M322,258.7c6.4,4.2,9.6,11.8,16,16c4.6-1,5.2-6.1,10-7c2,6.6-6.3,9.9-10,14c-8.4-4.3-11.2-14.2-19-19
				C319.3,260.7,321.8,260.7,322,258.7z"/>
			<path class="st1" d="M395,258.7c3.1-0.7,1.2,3.4,5,2c2,9.2-3.2,16.6-12,18c-3.1-2.8-5.2-1.3-9,0c-1.7-2.8-6.1-4.9-2-8
				c-2.5,0.1-4.8,0.2-6-1c0.2-1.2-0.2-1.8-1-2c2.2-5.1,6.8-7.9,14-8c0.5,1.5,1.5,2.5,2,4c0.1,3.4-2.9,3.7-5,5c4,2.2,6.2,0.3,9-2
				c0.5-3.2-1.8-3.5-1-7C392.1,260.4,392.7,258.7,395,258.7z"/>
			<path class="st1" d="M135,266.7c-0.1-1.7,0.2-3.1,1-4c2.5,0.1,0.3,3.4,0,4C135.7,266.7,135.4,266.7,135,266.7z"/>
			<path class="st1" d="M155,264.7c0.7,0,1.3,0,2,0c0,0.7,0,1.3,0,2c-0.7,0-1.3,0-2,0C155,266,155,265.4,155,264.7z"/>
			<path class="st1" d="M276,268.7c-0.4,4.9-3.1,7.6-8,8c-2-3-4.1-5.9-4-11C268.1,263.2,275.2,264.9,276,268.7z"/>
			<path class="st1" d="M294,265.7C292.8,265.8,293.4,264.2,294,265.7L294,265.7z"/>
			<path class="st1" d="M294,265.7c1.8,0.2,2.3,1.7,2,4C294.3,269.5,293.8,268,294,265.7z"/>
			<path class="st1" d="M135,266.7c-1.3,5-3.5,9.1-7,12C130.1,274.5,131.7,269.6,135,266.7z"/>
			<path class="st1" d="M31,269.7c6.5,0.2,13.2,0.2,17,3c0.8,3.8-1.2,4.8-1,8c-2.1,0.6-2.9,2.5-6,2c-1.5,6.2-10.7,8.7-18,6
				c-4-5.5-1.5-11.6-1-17c2.7,0,5.7-0.4,7,1c0.5,3.9-1.8,4.9-1,9C35.3,282.3,29.3,275.2,31,269.7z"/>
			<path class="st1" d="M296,269.7C299,269.9,295.1,273.9,296,269.7L296,269.7z"/>
			<path class="st1" d="M140,270.7c1.8,0.7,0.1,1.8,0,3C138.3,273,139.9,271.9,140,270.7z"/>
			<path class="st1" d="M159,276.7c-3.7,2.2-9.6-0.7-10-5C153,270.1,159.5,271,159,276.7z"/>
			<path class="st1" d="M125,276.7c-0.2-1.9,1.1-2.2,1-4c2.5,0.1,0.3,3.4,0,4C125.7,276.7,125.4,276.7,125,276.7z"/>
			<path class="st1" d="M135,275.7C134,270.4,138.1,274.5,135,275.7L135,275.7z"/>
			<path class="st1" d="M364,273.7c-0.5-0.5,0.7-1.3,1-1C365.6,273.2,364.3,274,364,273.7z"/>
			<path class="st1" d="M118,281.7c-0.5-3.1,1.4-3.9,2-6c2.4,0.8-0.8,4.4-1,6C118.7,281.7,118.4,281.7,118,281.7z"/>
			<path class="st1" d="M135,275.7c-0.5,4.9-3.8,6.9-5,11C128.4,283.6,133,278.4,135,275.7z"/>
			<path class="st1" d="M369,275.7c-2.9,4.1-9.5,4.5-12,9c-5.1,1.6-7.1,6.3-12,8C351.7,285.7,358.7,279,369,275.7z"/>
			<path class="st1" d="M125,276.7c-0.2,0.8,0,2-1,2C124.3,277.9,124.1,276.7,125,276.7z"/>
			<path class="st1" d="M145,276.7c3.9-0.6,6.9,5.1,11,7c5.1,2.4,18.4,5.3,25,6c32,3.6,74.6-2.7,96-12c5,14.6,12.9,26.5,18,41
				c-6.1,8.2-21,7.7-31,12c-12.2,2.5-26.2,2.6-36,5c-5,0-10,0-15,0c-27.8-4.4-62-4.4-82-18C135.1,303.4,140.7,290.7,145,276.7z
				 M158,300.7c3.2,6.1,11.2,7.5,14,14c-4.4,7.6-12.2-0.7-17-2c-0.5,11.8,20.9,13.4,22,2c-1.4-9.6-13.2-8.8-14-19
				c6.9-4.2,7.7,3.6,13,4C180.9,288,154.4,285.3,158,300.7z M267,304.7c4.6-16.2-8.6-14.9-20-11c-1,4.1,0.1,4,0,9
				c3.5,4.5,0.1,15.9,6,18c3-2.8-1.7-14.5,8-13c4.1,2.8,5.5,11.7,12,9C273,310.8,267.6,310.1,267,304.7z M187,296.7c1,3,5.9,2.1,7,5
				c2.2,8.4-5.5,20.8,3,23c3-6-1.4-19.4,3-24c2.5-3.2,8.2,3,8-3C206,295.9,190.7,293.3,187,296.7z M227,296.7c-1.4,0-2.2-0.5-3-1
				c-0.3,1.4-2.2,1.1-3,2c-1.7,9.7-9,18.9-8,28c7.1,0.5,3.3-10.1,10-10c4.1-0.8,5.1,1.5,9,1c0.9,2.7,2.1,8.4,5,6
				C239,312.7,228.6,306.5,227,296.7z"/>
			<path class="st1" d="M305,277.7C306.2,273.8,306.2,281.7,305,277.7L305,277.7z"/>
			<path class="st1" d="M301,277.7c1.8,0.2,2.3,1.7,2,4C301.3,281.5,300.8,280,301,277.7z"/>
			<path class="st1" d="M124,278.7c-0.2,0.8,0,2-1,2C123.3,279.9,123.1,278.7,124,278.7z"/>
			<path class="st1" d="M370,279.7C370.3,276.7,374.2,280.7,370,279.7L370,279.7z"/>
			<path class="st1" d="M136,281.7C135.1,277.5,139,281.5,136,281.7L136,281.7z"/>
			<path class="st1" d="M370,279.7c-0.7,2-2.7,2.7-5,3C365.7,280.7,367.7,280,370,279.7z"/>
			<path class="st1" d="M123,280.7C123.1,281.9,121.6,281.3,123,280.7L123,280.7z"/>
			<path class="st1" d="M294,281.7C292.8,281.8,293.4,280.2,294,281.7L294,281.7z"/>
			<path class="st1" d="M373,281.7c-0.5-0.5,0.7-1.3,1-1C374.6,281.2,373.3,282,373,281.7z"/>
			<path class="st1" d="M118,281.7C118.1,282.9,116.6,282.3,118,281.7L118,281.7z"/>
			<path class="st1" d="M126,282.7c1.5-3.5,1.9,1.8,1,2C126.5,284.8,125.8,283.3,126,282.7z"/>
			<path class="st1" d="M136,281.7c0.7,3.8,1.2,5.4-3,6C133.5,285.1,134.5,283.1,136,281.7z"/>
			<path class="st1" d="M294,281.7c0.8,0.2,1.2,0.8,1,2C294.3,283.5,293.9,282.9,294,281.7z"/>
			<path class="st1" d="M364,283.7c0.1-0.6,0.1-1.2,1-1C365,283.3,364.9,283.9,364,283.7z"/>
			<path class="st1" d="M379,282.7c-1.1,2.3-3,3.6-6,4C374.5,284.8,375.3,282.3,379,282.7z"/>
			<path class="st1" d="M295,283.7C296.3,283.6,295.7,285.2,295,283.7L295,283.7z"/>
			<path class="st1" d="M364,283.7c-0.4,1.3-1.3,2-3,2C361.5,284.4,362.3,283.7,364,283.7z"/>
			<path class="st1" d="M292,286.7C295.4,284.3,289.6,290.1,292,286.7L292,286.7z"/>
			<path class="st1" d="M361,285.7c-0.3,2.1-2.7,2-4,3C356.7,286.1,359.1,286.1,361,285.7z"/>
			<path class="st1" d="M54,290.7c-2.6-0.1-5.1-0.2-5-3C50.5,288.9,53.1,288.9,54,290.7z"/>
			<path class="st1" d="M355,289.7c0.2-0.8,0.8-1.2,2-1C356.8,289.5,356.2,289.9,355,289.7z"/>
			<path class="st2" d="M176,299.7c-5.3-0.4-6.1-8.2-13-4c0.8,10.2,12.6,9.4,14,19c-1.1,11.4-22.5,9.8-22-2c4.8,1.3,12.6,9.6,17,2
				c-2.8-6.5-10.8-7.9-14-14C154.4,285.3,180.9,288,176,299.7z"/>
			<path class="st1" d="M355,289.7c-0.9,1.5-1.5,3.2-4,3C351.9,291.2,352.5,289.5,355,289.7z"/>
			<path class="st1" d="M44,291.7c-0.5-0.5,0.7-1.3,1-1C45.6,291.2,44.3,292,44,291.7z"/>
			<path class="st1" d="M54,290.7c0.8,0.2,2,0,2,1C55.3,291.5,54.1,291.7,54,290.7z"/>
			<path class="st2" d="M273,316.7c-6.5,2.7-7.9-6.2-12-9c-9.7-1.5-5,10.2-8,13c-5.9-2.1-2.5-13.5-6-18c0.1-5-1-4.9,0-9
				c11.4-3.9,24.6-5.2,20,11C267.6,310.1,273,310.8,273,316.7z M251,297.7c0,1.7,0,3.3,0,5c2.8,3.4,12.3,1.8,13-3c0-1,0-2,0-3
				C261.3,293.2,253.9,295.5,251,297.7z"/>
			<path class="st1" d="M56,291.7C57.3,291.6,56.7,293.2,56,291.7L56,291.7z"/>
			<path class="st1" d="M58,293.7c-0.5-0.5,0.7-1.3,1-1C59.6,293.2,58.3,294,58,293.7z"/>
			<path class="st1" d="M351,292.7C350.8,296.6,346.6,292.5,351,292.7L351,292.7z"/>
			<path class="st1" d="M62,295.7c4.1-1.4,10.4,3.6,13,7C70.1,301,66.9,297.5,62,295.7z"/>
			<path class="st1" d="M71,295.7c0-1,1.2-0.8,2-1C73,295.7,71.8,295.5,71,295.7z"/>
			<path class="st2" d="M208,297.7c0.2,6-5.5-0.2-8,3c-4.4,4.6,0,18-3,24c-8.5-2.2-0.8-14.6-3-23c-1.1-2.9-6-2-7-5
				C190.7,293.3,206,295.9,208,297.7z"/>
			<path class="st1" d="M264,296.7c0,1,0,2,0,3c-0.7,4.8-10.2,6.4-13,3c0-1.7,0-3.3,0-5C253.9,295.5,261.3,293.2,264,296.7z"/>
			<path class="st2" d="M237,322.7c-2.9,2.4-4.1-3.3-5-6c-3.9,0.5-4.9-1.8-9-1c-6.7-0.1-2.9,10.5-10,10c-1-9.1,6.3-18.3,8-28
				c0.8-0.9,2.7-0.6,3-2c0.8,0.5,1.6,1,3,1C228.6,306.5,239,312.7,237,322.7z M221,309.7c1.3,1.4,5.7,1.4,7,0c0-3.7-2-5.4-4-7
				C223.2,305.2,221.3,306.6,221,309.7z"/>
			<path class="st1" d="M224,302.7c2,1.6,4,3.3,4,7c-1.3,1.4-5.7,1.4-7,0C221.3,306.6,223.2,305.2,224,302.7z"/>
		</g>
	</g>
</g>
</svg>
